<?xml version="1.0" encoding="iso-8859-1"?>
<!-- Generator: Adobe Illustrator 24.3.0, SVG Export Plug-In . SVG Version: 6.00 Build 0)  -->
<svg version="1.1" id="Layer_1" xmlns="http://www.w3.org/2000/svg" xmlns:xlink="http://www.w3.org/1999/xlink" x="0px" y="0px"
	 viewBox="0 0 48 48" style="enable-background:new 0 0 48 48;" xml:space="preserve">
<path style="fill:#CFD8DC;" d="M42,37c0,2.762-2.238,5-5,5H11c-2.762,0-5-2.238-5-5V11c0-2.762,2.238-5,5-5h26c2.762,0,5,2.238,5,5
	V37z"/>
<path style="fill:#1F212B;" d="M32,38H16c-1.105,0-2-0.895-2-2V12c0-1.105,0.895-2,2-2h16c1.105,0,2,0.895,2,2v24
	C34,37.105,33.105,38,32,38z"/>
<path style="fill:#757575;" d="M30,18H18c-0.552,0-1-0.448-1-1v-4c0-0.552,0.448-1,1-1h12c0.552,0,1,0.448,1,1v4
	C31,17.552,30.552,18,30,18z"/>
<circle style="fill:#E0E0E0;" cx="18" cy="22" r="2"/>
<circle style="fill:#E0E0E0;" cx="24" cy="22" r="2"/>
<circle style="fill:#FFAB40;" cx="30" cy="22" r="2"/>
<circle style="fill:#E0E0E0;" cx="18" cy="28" r="2"/>
<circle style="fill:#E0E0E0;" cx="24" cy="28" r="2"/>
<circle style="fill:#FFAB40;" cx="30" cy="28" r="2"/>
<circle style="fill:#FFAB40;" cx="30" cy="34" r="2"/>
<path style="fill:#E0E0E0;" d="M24,36h-6c-1.105,0-2-0.895-2-2v0c0-1.105,0.895-2,2-2h6c1.105,0,2,0.895,2,2v0
	C26,35.105,25.105,36,24,36z"/>
</svg>